<svg xmlns="http://www.w3.org/2000/svg" viewBox="0 0 64 64" fill="none">
  <!-- Innovation Value Icon - Lightbulb with gear -->
  
  <!-- Lightbulb glass -->
  <path d="M32 8 C22 8 16 16 16 26 C16 34 22 38 24 42 L40 42 C42 38 48 34 48 26 C48 16 42 8 32 8" fill="#FAF8F5" stroke="#1A3C34" stroke-width="2.5"/>
  
  <!-- Filament -->
  <path d="M28 28 Q32 22 36 28 Q32 34 28 28" stroke="#C45C3B" stroke-width="2" fill="none"/>
  
  <!-- Light rays -->
  <line x1="32" y1="2" x2="32" y2="6" stroke="#C45C3B" stroke-width="2" stroke-linecap="round"/>
  <line x1="52" y1="16" x2="56" y2="12" stroke="#C45C3B" stroke-width="2" stroke-linecap="round"/>
  <line x1="12" y1="16" x2="8" y2="12" stroke="#C45C3B" stroke-width="2" stroke-linecap="round"/>
  <line x1="56" y1="28" x2="52" y2="28" stroke="#C45C3B" stroke-width="2" stroke-linecap="round"/>
  <line x1="8" y1="28" x2="12" y2="28" stroke="#C45C3B" stroke-width="2" stroke-linecap="round"/>
  
  <!-- Base/screw -->
  <rect x="26" y="42" width="12" height="4" fill="#1A3C34"/>
  <rect x="24" y="46" width="16" height="3" fill="#1A3C34"/>
  <rect x="26" y="49" width="12" height="3" fill="#1A3C34"/>
  
  <!-- Small gear accent -->
  <circle cx="50" cy="46" r="6" fill="#E8DCC4" stroke="#1A3C34" stroke-width="1.5"/>
  <circle cx="50" cy="46" r="2" fill="#1A3C34"/>
  <!-- Gear teeth -->
  <rect x="49" y="39" width="2" height="3" fill="#1A3C34"/>
  <rect x="49" y="52" width="2" height="3" fill="#1A3C34"/>
  <rect x="43" y="45" width="3" height="2" fill="#1A3C34"/>
  <rect x="54" y="45" width="3" height="2" fill="#1A3C34"/>
</svg>