<svg xmlns="http://www.w3.org/2000/svg" viewBox="0 0 80 80" fill="none">
  <!-- Blender Illustration -->
  
  <!-- Glass pitcher -->
  <path d="M25 25 L22 60 C22 63 26 65 40 65 C54 65 58 63 58 60 L55 25 Z" fill="#FAF8F5" stroke="#1A3C34" stroke-width="2" opacity="0.9"/>
  
  <!-- Lid -->
  <ellipse cx="40" cy="25" rx="15" ry="4" fill="#1A3C34"/>
  <rect x="37" y="18" width="6" height="7" rx="2" fill="#1A3C34"/>
  
  <!-- Blending content -->
  <ellipse cx="40" cy="50" rx="14" ry="8" fill="#C45C3B" opacity="0.6"/>
  
  <!-- Blade center -->
  <circle cx="40" cy="58" r="4" fill="#1A3C34"/>
  
  <!-- Handle -->
  <path d="M55 35 C65 35 65 50 55 50" fill="none" stroke="#1A3C34" stroke-width="4" stroke-linecap="round"/>
  
  <!-- Base unit -->
  <rect x="25" y="65" width="30" height="10" rx="3" fill="#E8DCC4" stroke="#1A3C34" stroke-width="2"/>
  
  <!-- Control buttons -->
  <circle cx="35" cy="70" r="2" fill="#C45C3B"/>
  <circle cx="45" cy="70" r="2" fill="#1A3C34"/>
  
  <!-- Measurement lines -->
  <line x1="50" y1="35" x2="53" y2="35" stroke="#1A3C34" stroke-width="1"/>
  <line x1="49" y1="42" x2="52" y2="42" stroke="#1A3C34" stroke-width="1"/>
  <line x1="48" y1="49" x2="51" y2="49" stroke="#1A3C34" stroke-width="1"/>
</svg>