<svg xmlns="http://www.w3.org/2000/svg" viewBox="0 0 80 80" fill="none">
  <!-- Display Freezer Illustration -->
  
  <!-- Main cabinet -->
  <rect x="10" y="15" width="60" height="55" rx="3" fill="#E8DCC4" stroke="#1A3C34" stroke-width="2"/>
  
  <!-- Glass display front -->
  <rect x="14" y="20" width="52" height="40" rx="2" fill="#FAF8F5" stroke="#1A3C34" stroke-width="2" opacity="0.9"/>
  
  <!-- Display shelves -->
  <line x1="16" y1="32" x2="64" y2="32" stroke="#1A3C34" stroke-width="1.5"/>
  <line x1="16" y1="44" x2="64" y2="44" stroke="#1A3C34" stroke-width="1.5"/>
  
  <!-- Ice cream containers -->
  <rect x="20" y="22" width="10" height="8" rx="2" fill="#C45C3B"/>
  <rect x="32" y="22" width="10" height="8" rx="2" fill="#1A3C34"/>
  <rect x="44" y="22" width="10" height="8" rx="2" fill="#FAF8F5" stroke="#1A3C34" stroke-width="1"/>
  
  <rect x="20" y="34" width="10" height="8" rx="2" fill="#FAF8F5" stroke="#1A3C34" stroke-width="1"/>
  <rect x="32" y="34" width="10" height="8" rx="2" fill="#C45C3B"/>
  <rect x="44" y="34" width="10" height="8" rx="2" fill="#1A3C34"/>
  
  <rect x="26" y="46" width="10" height="8" rx="2" fill="#1A3C34"/>
  <rect x="38" y="46" width="10" height="8" rx="2" fill="#C45C3B"/>
  
  <!-- Top panel with logo area -->
  <rect x="25" y="8" width="30" height="6" rx="2" fill="#C45C3B" stroke="#1A3C34" stroke-width="1"/>
  
  <!-- Cold vapor effect -->
  <path d="M20 62 Q25 58 30 62 Q35 66 40 62" stroke="#1A3C34" stroke-width="1" fill="none" opacity="0.5"/>
  
  <!-- Temperature display -->
  <rect x="52" y="62" width="10" height="5" rx="1" fill="#1A3C34"/>
</svg>